<?xml version="1.0" standalone="no"?>
<!DOCTYPE svg PUBLIC "-//W3C//DTD SVG 20010904//EN"
 "http://www.w3.org/TR/2001/REC-SVG-20010904/DTD/svg10.dtd">
<svg version="1.0" xmlns="http://www.w3.org/2000/svg"
 width="572.000000pt" height="572.000000pt" viewBox="0 0 572.000000 572.000000"
 preserveAspectRatio="xMidYMid meet">
<metadata>
Created by potrace 1.11, written by Peter Selinger 2001-2013
</metadata>
<g transform="translate(0.000000,572.000000) scale(0.100000,-0.100000)"
fill="#000000" stroke="none">
<path d="M2523 5694 c-1167 -141 -2135 -988 -2423 -2120 -69 -267 -84 -399
-84 -714 0 -303 14 -433 73 -675 250 -1024 1049 -1831 2068 -2090 260 -66 382
-80 703 -80 225 0 309 4 400 18 538 84 990 282 1400 612 153 123 364 341 481
498 567 755 725 1726 427 2622 -146 440 -379 808 -723 1144 -453 441 -1023
712 -1651 786 -159 19 -515 18 -671 -1z m627 -309 c389 -45 757 -175 1071
-376 77 -50 79 -52 79 -91 0 -74 30 -245 66 -375 54 -196 64 -236 61 -240 -2
-2 -30 34 -62 79 -143 203 -232 313 -326 402 -56 53 -104 96 -109 96 -4 0 -10
-19 -14 -42 l-7 -42 -22 43 c-33 66 -101 136 -159 165 -28 14 -53 24 -55 23
-1 -2 6 -29 17 -60 11 -31 20 -67 20 -79 0 -18 -4 -15 -21 17 -34 64 -88 124
-145 162 -52 34 -55 35 -73 18 -19 -16 -21 -16 -54 9 -28 21 -109 45 -156 46
-2 0 8 -15 21 -32 29 -39 61 -98 56 -104 -3 -2 -42 24 -87 57 -45 33 -85 59
-87 56 -2 -2 3 -20 11 -40 8 -21 14 -37 12 -37 -2 0 -28 13 -58 30 -66 36 -73
37 -67 5 6 -29 8 -29 -62 -10 -87 23 -119 19 -210 -26 l-83 -42 23 -17 23 -17
-49 -8 c-27 -4 -60 -13 -74 -20 -28 -15 -134 -131 -165 -181 -11 -18 -33 -48
-48 -68 -29 -35 -72 -156 -56 -156 4 0 47 25 93 55 295 193 620 235 951 124
129 -43 450 -204 590 -296 121 -80 250 -181 242 -190 -3 -2 -76 32 -164 75
-280 141 -429 177 -718 177 -132 0 -203 -5 -269 -18 -262 -53 -457 -152 -632
-319 -84 -81 -184 -202 -184 -224 0 -6 27 -19 61 -29 66 -20 63 -29 -15 -39
-56 -7 -82 -26 -102 -73 -21 -50 -19 -53 44 -54 48 0 54 -2 38 -12 -89 -57
-98 -68 -111 -139 l-7 -37 33 9 c53 16 54 13 4 -42 -58 -65 -70 -88 -84 -163
-17 -89 -15 -108 9 -102 24 6 24 9 4 -39 -13 -31 -15 -57 -10 -124 3 -47 10
-98 14 -114 8 -29 8 -28 34 30 14 32 52 131 83 219 52 146 140 341 179 397 15
22 16 20 16 -40 0 -72 -2 -72 97 -26 28 13 55 24 58 24 4 0 -14 -30 -40 -66
-32 -47 -44 -72 -39 -86 7 -22 127 -148 141 -148 4 0 32 48 62 108 156 313
388 577 622 706 127 70 289 93 436 62 117 -25 122 -28 116 -76 l-6 -42 109 7
c60 3 122 2 138 -3 26 -7 18 -11 -78 -36 l-107 -28 -177 22 c-128 16 -205 21
-277 17 -93 -5 -188 -28 -200 -48 -3 -4 14 -18 37 -30 57 -28 145 -94 158
-118 8 -16 -2 -14 -73 15 -117 47 -204 69 -248 60 -33 -6 -119 -68 -119 -85 0
-5 38 -18 84 -30 95 -25 194 -69 216 -96 14 -17 13 -18 -4 -11 -138 51 -303
64 -373 28 -59 -31 -60 -40 -6 -47 114 -14 165 -25 205 -43 l43 -19 -60 -6
c-253 -27 -289 -40 -334 -119 -17 -29 -31 -58 -31 -64 0 -7 25 -15 58 -18 103
-13 103 -14 -14 -71 -60 -29 -122 -67 -138 -84 l-29 -30 62 19 c33 10 61 17
61 15 0 -2 -24 -20 -52 -41 -108 -77 -115 -87 -193 -266 l-42 -96 44 -7 45 -7
-76 -78 c-79 -80 -105 -127 -147 -255 -11 -35 -19 -74 -17 -85 3 -20 4 -20 42
6 33 23 38 24 32 8 -66 -165 -101 -296 -90 -341 l6 -24 28 32 27 33 6 -55 c9
-77 37 -156 48 -136 5 8 27 89 48 180 50 205 102 349 196 542 233 477 531 785
933 965 192 86 277 110 378 109 151 -2 152 -10 8 -48 -71 -19 -157 -39 -192
-45 -67 -11 -70 -15 -48 -68 7 -14 3 -15 -31 -7 -89 20 -143 10 -227 -44 l-49
-31 25 -21 25 -21 -71 -11 c-39 -6 -91 -20 -116 -32 -49 -23 -120 -77 -120
-91 0 -5 27 -19 60 -31 33 -12 59 -23 57 -26 -2 -2 -42 -8 -88 -14 -46 -5 -95
-18 -109 -27 l-25 -16 35 -7 c19 -4 53 -10 75 -15 l40 -7 -30 -7 c-16 -4 -46
-8 -65 -9 -19 -1 -53 -10 -75 -20 l-40 -18 75 -18 c41 -10 79 -20 84 -23 5 -3
-27 -15 -70 -28 -153 -44 -154 -47 -24 -55 63 -3 118 -7 123 -8 13 -2 7 -21
-7 -21 -34 0 -301 -111 -326 -135 -39 -38 -54 -107 -46 -214 5 -81 21 -161 32
-161 2 0 46 9 96 20 144 33 146 28 31 -72 -112 -97 -143 -134 -143 -171 0 -54
237 -688 269 -720 12 -12 19 21 41 224 24 219 40 309 85 490 118 471 294 831
534 1094 66 72 215 205 229 205 5 0 15 -7 22 -15 7 -8 22 -15 34 -15 16 0 -1
-22 -75 -97 -53 -54 -123 -129 -155 -168 -66 -79 -174 -243 -174 -263 0 -11
11 -12 50 -7 28 4 50 5 50 2 0 -3 -32 -30 -70 -61 -61 -50 -147 -153 -136
-164 3 -2 35 17 71 42 37 25 72 46 77 46 10 0 10 -1 -58 -100 -61 -89 -98
-160 -84 -160 5 0 33 18 62 40 29 21 54 37 56 35 2 -2 -8 -19 -22 -37 -31 -41
-56 -99 -56 -130 0 -28 55 -148 68 -148 5 0 17 27 26 60 9 33 19 60 22 60 3 0
3 -22 -1 -50 -10 -73 3 -146 32 -180 31 -38 39 -37 60 2 l17 33 8 -43 c9 -56
45 -114 67 -110 10 2 22 -8 31 -27 19 -38 47 -51 157 -73 l88 -18 3 -48 3 -49
-40 6 -41 5 6 -53 c4 -29 4 -69 0 -89 -6 -29 -11 -36 -30 -36 -23 0 -24 -3
-28 -94 -3 -81 -7 -99 -31 -135 -15 -22 -27 -54 -27 -70 0 -53 -8 -62 -35 -35
-13 13 -28 24 -32 24 -4 0 -8 -39 -9 -88 -2 -116 -22 -235 -39 -228 -14 5 -25
-23 -25 -68 0 -16 -5 -46 -12 -67 -10 -35 -15 -39 -43 -39 -32 0 -32 0 -44
-72 -15 -90 -41 -151 -75 -173 -18 -12 -27 -29 -32 -61 -3 -24 -9 -44 -12 -44
-3 0 -20 14 -37 30 l-31 30 -12 -77 c-7 -43 -18 -83 -25 -89 -16 -15 -201 -58
-347 -81 -141 -22 -558 -25 -685 -5 -249 40 -437 90 -630 168 -1245 508 -1879
1898 -1448 3173 134 396 389 786 693 1059 422 379 916 596 1490 655 97 10 398
5 510 -8z m1815 -1095 c15 -22 26 -42 24 -44 -2 -2 -24 -13 -48 -26 l-44 -22
7 29 c16 65 27 103 30 103 2 0 16 -18 31 -40z m193 -337 l42 -88 -97 -6 c-54
-4 -128 -10 -165 -14 l-68 -8 0 45 c0 87 8 106 54 123 54 20 113 33 157 34 35
1 36 0 77 -86z m-238 -460 c138 -125 194 -290 169 -497 -14 -118 -46 -227
-120 -410 -33 -81 -58 -150 -56 -152 8 -9 171 51 219 80 29 17 63 47 76 66 22
32 24 43 20 128 -3 68 -1 92 8 92 26 0 70 -22 110 -55 23 -19 44 -31 48 -28
19 19 -13 -237 -50 -407 -80 -363 -261 -742 -494 -1035 -142 -178 -347 -369
-531 -497 -125 -86 -128 -88 -109 -61 8 12 37 50 64 84 l50 62 -47 -5 c-26 -3
-47 -2 -47 2 0 4 12 19 27 34 l27 27 -23 6 c-19 5 -22 10 -17 36 3 16 19 51
35 77 16 26 36 76 45 110 9 35 26 78 37 96 16 27 18 37 9 54 -9 17 -4 39 30
123 23 56 62 140 86 186 24 46 44 85 44 88 0 2 -15 1 -34 -2 l-34 -7 44 139
c25 76 49 163 55 193 6 30 18 67 26 83 13 26 13 31 -1 46 -14 16 -13 27 14
129 17 62 42 138 55 169 14 30 25 58 25 60 0 3 -13 3 -28 0 l-28 -6 -2 71 c-1
39 5 99 13 135 8 35 15 82 15 104 0 22 6 55 14 73 12 29 12 36 -1 48 -13 14
-13 28 1 124 15 98 31 165 52 218 6 16 3 17 -26 11 l-32 -7 28 48 c15 27 31
53 36 59 18 21 7 35 -27 35 -19 0 -35 4 -35 9 0 5 23 25 51 45 27 20 59 52 71
71 l20 35 30 -18 c16 -9 56 -41 88 -69z m430 -113 c0 -5 -4 -10 -10 -10 -5 0
-10 5 -10 10 0 6 5 10 10 10 6 0 10 -4 10 -10z m-1048 -206 c32 4 58 3 58 -2
0 -10 -37 -45 -62 -58 -16 -9 -13 -16 25 -74 30 -47 43 -77 45 -107 2 -40 -9
-56 -23 -33 -3 6 -14 10 -25 10 -17 0 -17 -3 -5 -43 23 -77 38 -225 26 -255
-6 -15 -10 -58 -9 -97 3 -68 2 -70 -21 -67 -22 3 -23 2 -16 -40 12 -69 8 -147
-9 -172 -8 -13 -16 -42 -18 -66 l-3 -42 -27 22 -28 21 0 -33 -1 -33 -49 54
c-200 219 -213 616 -33 1001 l44 95 36 -44 36 -43 59 6z m1086 -173 c8 -5 12
-16 10 -26 -2 -14 -7 -13 -27 9 -24 26 -13 37 17 17z"/>
</g>
</svg>
